<svg width="350" height="350" viewBox="0 0 350 350" fill="none" xmlns="http://www.w3.org/2000/svg">
<path d="M350 267.679H0V267.854H350V267.679Z" fill="#EBEBEB"/>
<path d="M314.931 278.946H291.745V279.121H314.931V278.946Z" fill="#EBEBEB"/>
<path d="M231.854 280.846H225.769V281.021H231.854V280.846Z" fill="#EBEBEB"/>
<path d="M291.045 272.445H277.61V272.62H291.045V272.445Z" fill="#EBEBEB"/>
<path d="M66.9563 273.622H36.7212V273.797H66.9563V273.622Z" fill="#EBEBEB"/>
<path d="M77.6221 273.622H73.189V273.797H77.6221V273.622Z" fill="#EBEBEB"/>
<path d="M157.603 276.578H92.0298V276.753H157.603V276.578Z" fill="#EBEBEB"/>
<path d="M165.91 236.46H30.7407C28.5378 236.46 26.7451 234.667 26.7451 232.464V42.4619C26.7451 40.259 28.5378 38.4663 30.7407 38.4663H165.91C168.112 38.4663 169.905 40.259 169.905 42.4619V232.464C169.905 234.667 168.112 236.46 165.91 236.46ZM30.7407 38.642C28.6337 38.642 26.9201 40.3556 26.9201 42.4626V232.465C26.9201 234.572 28.6337 236.286 30.7407 236.286H165.91C168.016 236.286 169.73 234.572 169.73 232.465V42.4619C169.73 40.3556 168.016 38.6413 165.91 38.6413L30.7407 38.642Z" fill="#EBEBEB"/>
<path d="M317.317 236.46H182.148C179.945 236.46 178.153 234.667 178.153 232.464V42.4619C178.153 40.259 179.946 38.4663 182.148 38.4663H317.317C319.52 38.4663 321.312 40.259 321.312 42.4619V232.464C321.313 234.667 319.52 236.46 317.317 236.46ZM182.148 38.642C180.042 38.642 178.328 40.3556 178.328 42.4626V232.465C178.328 234.572 180.042 236.286 182.148 236.286H317.317C319.424 236.286 321.137 234.572 321.137 232.465V42.4619C321.137 40.3556 319.424 38.6413 317.317 38.6413L182.148 38.642Z" fill="#EBEBEB"/>
<path d="M152.912 200.107H64.4204V206.353H152.912V200.107Z" fill="#EBEBEB"/>
<path d="M152.911 200.107H114.433V206.353H152.911V200.107Z" fill="#E0E0E0"/>
<path d="M77.4943 206.354H64.4204V267.679H77.4943V206.354Z" fill="#EBEBEB"/>
<path d="M77.4943 212.683L64.4204 208.23V206.354H77.4943V212.683Z" fill="#E0E0E0"/>
<path d="M152.912 206.354H139.838V267.679H152.912V206.354Z" fill="#E0E0E0"/>
<path d="M127.508 206.354H114.433V267.679H127.508V206.354Z" fill="#EBEBEB"/>
<path d="M127.508 212.683L114.433 208.23V206.354H127.508V212.683Z" fill="#E0E0E0"/>
<path d="M102.899 206.354H89.8247V267.679H102.899V206.354Z" fill="#E0E0E0"/>
<path d="M161.233 61.0161H49.7002V155.983H161.233V61.0161Z" fill="#EBEBEB"/>
<path d="M161.234 155.983H162.479V61.0165H161.234V155.983Z" fill="#E0E0E0"/>
<path d="M157.033 151.783L157.033 65.2163L53.9001 65.2163L53.9001 151.783H157.033Z" fill="#F5F5F5"/>
<path d="M104.222 138.639C110.505 117.62 112.272 86.6657 125.674 90.9385C139.076 95.2113 121.52 141.011 121.52 141.011L104.222 138.639Z" fill="white"/>
<path d="M115.047 139.688C108.634 109.251 110.25 68.8442 90.3277 69.771C70.405 70.6978 90.3277 141.011 90.3277 141.011L115.047 139.688Z" fill="white"/>
<path d="M129.119 136.271H85.5081C83.5691 136.271 82.097 137.695 82.0179 139.494C81.131 159.584 84.4217 180.061 90.546 200.107H123.942C130.067 180.061 133.357 159.584 132.47 139.494C132.39 137.695 130.921 136.271 129.119 136.271Z" fill="#EBEBEB"/>
<path d="M228.341 71.6084H225.884V267.679H228.341V71.6084Z" fill="#E0E0E0"/>
<path d="M286.085 71.6084H283.628V267.679H286.085V71.6084Z" fill="#E0E0E0"/>
<path d="M210.917 71.6084H208.46V267.679H210.917V71.6084Z" fill="#EBEBEB"/>
<path d="M268.661 71.6084H266.204V267.679H268.661V71.6084Z" fill="#EBEBEB"/>
<path d="M286.086 70.2676H208.46V72.9479H286.086V70.2676Z" fill="#EBEBEB"/>
<path d="M286.086 118.281H208.46V120.961H286.086V118.281Z" fill="#EBEBEB"/>
<path d="M286.086 166.294H208.46V168.974H286.086V166.294Z" fill="#EBEBEB"/>
<path d="M286.086 214.306H208.46V216.986H286.086V214.306Z" fill="#EBEBEB"/>
<path d="M286.086 262.319H208.46V264.999H286.086V262.319Z" fill="#EBEBEB"/>
<path d="M286.085 70.2671H268.661V72.9474H286.085V70.2671Z" fill="#E0E0E0"/>
<path d="M286.085 118.28H268.661V120.961H286.085V118.28Z" fill="#E0E0E0"/>
<path d="M286.085 166.293H268.661V168.973H286.085V166.293Z" fill="#E0E0E0"/>
<path d="M286.085 214.305H268.661V216.985H286.085V214.305Z" fill="#E0E0E0"/>
<path d="M286.085 262.318H268.661V264.999H286.085V262.318Z" fill="#E0E0E0"/>
<path d="M239.775 86.5979V82.8193H230.441V86.5979C230.441 89.0661 228.44 91.0674 225.971 91.0674C223.503 91.0674 221.502 93.0687 221.502 95.5369V118.28H248.714V95.5369C248.714 93.068 246.713 91.0674 244.245 91.0674C241.775 91.0674 239.775 89.0661 239.775 86.5979Z" fill="#F0F0F0"/>
<path d="M259.086 150.678H218.192V166.293H259.086V150.678Z" fill="#F0F0F0"/>
<path d="M259.085 166.293H266.204V150.678H259.085V166.293Z" fill="#E6E6E6"/>
<path d="M259.085 159.346H266.204V157.625H259.085V159.346Z" fill="#EBEBEB"/>
<path d="M259.086 157.626H218.192V159.347H259.086V157.626Z" fill="#F5F5F5"/>
<path d="M248.128 234.712H216.186V262.319H248.128V234.712Z" fill="#F0F0F0"/>
<path d="M248.128 262.319H253.688V234.712H248.128V262.319Z" fill="#E6E6E6"/>
<path d="M248.128 250.036H253.688V246.995H248.128V250.036Z" fill="#EBEBEB"/>
<path d="M248.128 246.995H216.186V250.036H248.128V246.995Z" fill="#F5F5F5"/>
<path d="M248.128 244.861H253.688V243.774H248.128V244.861Z" fill="#EBEBEB"/>
<path d="M248.128 243.774H216.186V244.86H248.128V243.774Z" fill="#F5F5F5"/>
<path d="M223.977 186.238H218.192V214.306H223.977V186.238Z" fill="#F0F0F0"/>
<path d="M223.977 196.239H218.192V204.305H223.977V196.239Z" fill="#FAFAFA"/>
<path d="M223.977 214.306H243.646V186.238H223.977V214.306Z" fill="#E6E6E6"/>
<path d="M232.907 182.607H226.374V214.306H232.907V182.607Z" fill="#EBEBEB"/>
<path d="M232.907 192.683H226.374V197.563H232.907V192.683Z" fill="#FAFAFA"/>
<path d="M232.907 200.832H226.374V205.712H232.907V200.832Z" fill="#FAFAFA"/>
<path d="M232.907 214.306H255.12V182.608H232.907V214.306Z" fill="#E0E0E0"/>
<path d="M240.174 186.238H236.656V214.306H240.174V186.238Z" fill="#F0F0F0"/>
<path d="M239.569 189.794H237.261V210.751H239.569V189.794Z" fill="#FAFAFA"/>
<path d="M240.174 214.306H252.135V186.238H240.174V214.306Z" fill="#E6E6E6"/>
<path d="M249.578 184.756H245.604V214.306H249.578V184.756Z" fill="#EBEBEB"/>
<path d="M249.578 194.148H245.604V198.698H249.578V194.148Z" fill="#FAFAFA"/>
<path d="M249.578 201.745H245.604V206.295H249.578V201.745Z" fill="#FAFAFA"/>
<path d="M249.578 214.306H263.086V184.756H249.578V214.306Z" fill="#E0E0E0"/>
<path d="M247.765 148.13C251.164 144.73 251.164 139.219 247.765 135.82C244.365 132.42 238.854 132.42 235.455 135.82C232.055 139.219 232.055 144.73 235.455 148.13C238.854 151.529 244.365 151.529 247.765 148.13Z" fill="#F5F5F5"/>
<path d="M252.216 150.597C255.507 150.063 257.742 146.963 257.208 143.672C256.674 140.382 253.573 138.147 250.282 138.681C246.992 139.215 244.757 142.316 245.291 145.606C245.825 148.897 248.926 151.131 252.216 150.597Z" fill="#EBEBEB"/>
<path d="M175 299.293C249.957 299.293 310.722 295.744 310.722 291.367C310.722 286.989 249.957 283.44 175 283.44C100.043 283.44 39.2778 286.989 39.2778 291.367C39.2778 295.744 100.043 299.293 175 299.293Z" fill="#F5F5F5"/>
<path d="M178.187 237.083H88.2759V283.518C88.2759 286.019 90.3038 288.047 92.8049 288.047H173.658C176.159 288.047 178.187 286.019 178.187 283.518L178.187 237.083Z" fill="#ED1C24"/>
<path d="M88.2758 237.083H151.894L144.066 227.067C143.208 225.969 141.077 225.079 139.308 225.079H82.0997C80.3294 225.079 79.5909 225.969 80.4491 227.067L88.2758 237.083Z" fill="#ED1C24"/>
<path opacity="0.2" d="M88.2758 237.083H151.894L144.066 227.067C143.208 225.969 141.077 225.079 139.308 225.079H82.0997C80.3294 225.079 79.5909 225.969 80.4491 227.067L88.2758 237.083Z" fill="black"/>
<path d="M178.187 237.083H114.569L122.397 230.555C123.255 229.839 125.386 229.258 127.155 229.258H184.364C186.133 229.258 186.872 229.839 186.014 230.555L178.187 237.083Z" fill="#ED1C24"/>
<path opacity="0.2" d="M178.187 237.083H114.569V283.518C114.569 286.019 116.597 288.047 119.098 288.047H173.658C176.159 288.047 178.187 286.019 178.187 283.518L178.187 237.083Z" fill="white"/>
<path opacity="0.5" d="M96.1724 237.083V268.92L98.3711 267.185L99.9188 268.92L101.266 266.988L102.639 268.92L104.562 267.467L106.672 268.92V237.083H96.1724Z" fill="white"/>
<path d="M110.407 167.636L99.1011 158.144" stroke="#ED1C24" stroke-miterlimit="10"/>
<path d="M116.266 172.554L112.818 169.66" stroke="#ED1C24" stroke-miterlimit="10"/>
<path d="M150.132 192.422L187.427 145.806L137.77 104.118L104.845 141.868L99.9713 151.312C98.9472 152.486 99.0893 154.133 100.302 155.151L145.112 192.771C146.558 193.984 148.912 193.821 150.132 192.422Z" fill="#ED1C24"/>
<path opacity="0.5" d="M124.553 158.047L119.184 166.694L121.343 167.159L122.076 169.165L123.516 169.249L124.177 170.96L125.936 171.475L127.291 173.62L132.66 164.972L124.553 158.047Z" fill="white"/>
<path opacity="0.1" d="M185.803 144.443L152.355 181.755L104.845 141.868L137.77 104.119L185.803 144.443Z" fill="black"/>
<path d="M185.804 144.443L152.355 181.755L166.204 182.779L199.129 145.029L185.804 144.443Z" fill="#ED1C24"/>
<path opacity="0.3" d="M185.804 144.443L152.355 181.755L166.204 182.779L199.129 145.029L185.804 144.443Z" fill="black"/>
<path d="M124.444 103.533L90.9966 140.844L104.845 141.868L137.77 104.119L124.444 103.533Z" fill="#ED1C24"/>
<path opacity="0.4" d="M124.444 103.533L90.9966 140.844L104.845 141.868L137.77 104.119L124.444 103.533Z" fill="black"/>
<path opacity="0.1" d="M175.502 155.933L185.803 144.443L137.769 104.119L131.617 118.929L175.502 155.933Z" fill="black"/>
<path opacity="0.2" d="M104.845 141.868L137.77 104.119L131.618 118.929L108.436 144.884L104.845 141.868Z" fill="black"/>
<path d="M197.41 74.2047C197.543 74.6569 197.411 75.093 197.116 75.1798C196.82 75.2666 196.473 74.9705 196.341 74.5183C196.208 74.0661 196.34 73.63 196.636 73.5432C196.931 73.4571 197.278 73.7532 197.41 74.2047Z" fill="#263238"/>
<path d="M197.453 75.0811C197.453 75.0811 197.19 77.9903 196.429 79.58C197.447 80.0917 198.707 79.3518 198.707 79.3518L197.453 75.0811Z" fill="#ED847E"/>
<path d="M198.328 71.2102C198.387 71.1787 198.436 71.1255 198.46 71.0576C198.51 70.9134 198.434 70.7559 198.29 70.7048C196.847 70.1959 195.826 70.9617 195.782 70.9946C195.661 71.0877 195.638 71.2613 195.731 71.3824C195.824 71.5035 195.999 71.5245 196.118 71.4342C196.152 71.409 196.955 70.821 198.107 71.2263C198.182 71.2529 198.262 71.2445 198.328 71.2102Z" fill="#263238"/>
<path d="M212.97 77.198C213.275 80.908 214.195 87.7155 216.387 89.2653C216.387 89.2653 215.865 93.7229 208.012 94.8828C199.378 96.1582 203.253 91.2057 203.253 91.2057C207.799 89.3843 207.161 85.906 205.855 82.7434L209.192 78.9193C210.444 77.4829 212.813 75.2989 212.97 77.198Z" fill="#FFC3BD"/>
<path d="M219.207 91.0749C219.911 90.4393 218.493 87.8927 217.646 87.5378C215.392 86.5907 206.17 87.5266 202.703 90.5079C201.71 92.085 202.431 93.7902 202.431 93.7902L219.207 91.0749Z" fill="white"/>
<path d="M248.564 278.186C247.992 278.361 247.41 278.444 247.109 278.228C246.982 278.138 246.847 277.955 246.922 277.6C246.961 277.413 247.068 277.266 247.242 277.164C247.996 276.723 249.864 277.306 249.943 277.331C249.995 277.347 250.033 277.393 250.039 277.447C250.045 277.501 250.018 277.554 249.972 277.582C249.707 277.738 249.14 278.009 248.564 278.186ZM247.539 277.336C247.481 277.354 247.428 277.376 247.381 277.403C247.276 277.465 247.215 277.547 247.192 277.656C247.139 277.911 247.237 277.981 247.27 278.004C247.605 278.244 248.746 277.901 249.537 277.504C248.966 277.355 248.046 277.18 247.539 277.336Z" fill="#ED1C24"/>
<path d="M249.941 277.595C249.919 277.602 249.896 277.603 249.873 277.599C249.199 277.462 247.707 276.582 247.635 275.923C247.621 275.803 247.645 275.583 247.95 275.447C248.148 275.359 248.353 275.358 248.565 275.444C249.376 275.775 250.004 277.346 250.03 277.412C250.048 277.46 250.04 277.513 250.008 277.551C249.989 277.572 249.966 277.588 249.941 277.595ZM248.12 275.677C248.101 275.684 248.081 275.691 248.062 275.7C247.896 275.773 247.906 275.857 247.91 275.892C247.952 276.282 248.948 276.987 249.656 277.248C249.446 276.797 248.98 275.913 248.459 275.701C248.341 275.652 248.23 275.644 248.12 275.677Z" fill="#ED1C24"/>
<path d="M207.538 285.703C206.789 285.703 206.065 285.6 205.823 285.264C205.738 285.146 205.671 284.945 205.835 284.659C205.926 284.499 206.073 284.389 206.273 284.335C207.244 284.071 209.286 285.234 209.372 285.284C209.421 285.313 209.449 285.369 209.439 285.426C209.43 285.483 209.386 285.528 209.33 285.539C208.957 285.614 208.236 285.703 207.538 285.703ZM206.612 284.571C206.515 284.571 206.425 284.581 206.345 284.603C206.218 284.638 206.129 284.701 206.074 284.796C205.976 284.968 206.012 285.053 206.047 285.102C206.319 285.479 207.795 285.488 208.881 285.334C208.339 285.056 207.294 284.571 206.612 284.571Z" fill="#ED1C24"/>
<path d="M209.302 285.542C209.282 285.542 209.263 285.538 209.245 285.53C208.54 285.213 207.144 283.951 207.251 283.291C207.276 283.135 207.386 282.943 207.766 282.904C208.05 282.875 208.306 282.955 208.533 283.141C209.276 283.752 209.433 285.325 209.44 285.391C209.445 285.44 209.423 285.488 209.383 285.517C209.359 285.533 209.33 285.542 209.302 285.542ZM207.877 283.175C207.849 283.175 207.821 283.176 207.793 283.179C207.545 283.204 207.529 283.302 207.524 283.335C207.46 283.731 208.409 284.723 209.128 285.155C209.053 284.696 208.845 283.755 208.357 283.355C208.211 283.235 208.052 283.175 207.877 283.175Z" fill="#ED1C24"/>
<path d="M215.724 285.404H209.884L209.303 271.881H215.142L215.724 285.404Z" fill="#FFC3BD"/>
<path d="M256.78 276.172L251.399 278.027L245.814 265.277L251.195 263.422L256.78 276.172Z" fill="#FFC3BD"/>
<path d="M250.119 276.689L256.391 274.765C256.619 274.695 256.866 274.793 256.983 275.001L259.608 279.625C259.88 280.105 259.625 280.716 259.095 280.868C256.894 281.503 255.791 281.7 253.032 282.546C251.336 283.066 247.053 284.69 244.651 285.173C242.301 285.646 241.456 283.344 242.397 282.931C246.613 281.078 248.321 278.971 249.318 277.31C249.498 277.01 249.785 276.791 250.119 276.689Z" fill="#263238"/>
<path d="M209.922 284.728H216.299C216.538 284.728 216.745 284.893 216.796 285.127L217.95 290.317C218.07 290.855 217.661 291.365 217.11 291.356C214.81 291.317 211.486 291.182 208.595 291.182C205.214 291.182 203.788 291.366 199.824 291.366C197.426 291.366 196.761 288.943 197.764 288.723C202.332 287.724 204.568 287.616 208.515 285.183C208.945 284.918 209.418 284.728 209.922 284.728Z" fill="#263238"/>
<path d="M226.899 92.9893C228.597 94.551 230.069 96.112 231.592 97.7402C233.082 99.3775 234.533 101.062 235.905 102.856C237.289 104.644 238.603 106.52 239.796 108.628C240.39 109.688 240.961 110.804 241.437 112.086C241.554 112.411 241.675 112.724 241.776 113.087C241.881 113.436 241.984 113.783 242.062 114.182L242.182 114.761L242.264 115.405C242.314 115.717 242.365 116.568 242.266 117.189C242.084 118.502 241.57 119.514 241.062 120.294C240.544 121.07 239.989 121.647 239.45 122.152C238.367 123.149 237.305 123.85 236.254 124.482C234.149 125.72 232.061 126.608 229.968 127.412C225.771 128.989 221.587 130.087 217.245 130.91L216.021 126.7C219.822 125.053 223.669 123.278 227.243 121.376C229.023 120.421 230.751 119.396 232.216 118.312C232.942 117.778 233.604 117.209 234.033 116.707C234.248 116.461 234.393 116.229 234.449 116.107C234.5 115.987 234.427 116.002 234.372 116.254C234.326 116.723 234.336 116.359 234.22 116.108C234.188 115.986 234.121 115.828 234.058 115.672C234.007 115.524 233.917 115.347 233.839 115.178C233.508 114.491 233.07 113.725 232.575 112.959C231.569 111.422 230.352 109.863 229.074 108.331C227.787 106.802 226.429 105.285 225.037 103.792C223.67 102.296 222.178 100.801 220.809 99.4118L226.899 92.9893Z" fill="#FFC3BD"/>
<path d="M217.607 126.052L212.064 127.718L215.606 133.542C215.606 133.542 218.866 132.195 219.581 129.429L217.607 126.052Z" fill="#FFC3BD"/>
<path d="M209.876 129.777L212.044 134.582L215.606 133.542L212.064 127.718L209.876 129.777Z" fill="#FFC3BD"/>
<path d="M213.99 94.5719C213.463 100.162 225.31 108.834 225.31 108.834L236.715 101.029C236.715 101.029 234.37 96.0055 228.299 92.1065C221.774 87.9163 214.646 87.6132 213.99 94.5719Z" fill="#ED1C24"/>
<g opacity="0.3">
<path d="M213.99 94.5719C213.463 100.162 225.31 108.834 225.31 108.834L236.715 101.029C236.715 101.029 234.37 96.0055 228.299 92.1065C221.774 87.9163 214.646 87.6132 213.99 94.5719Z" fill="white"/>
</g>
<path d="M194.604 94.1207C194.604 94.1207 189.481 101.974 201.636 144.102L232.534 139.539C232.098 135.267 226.929 116.642 226.76 96.2753C226.725 92.1411 223.253 88.8539 219.124 89.0632C218.222 89.1094 217.299 89.1738 216.387 89.2641C212.411 89.6568 206.677 90.375 203.252 91.2045C198.738 92.2986 194.604 94.1207 194.604 94.1207Z" fill="#ED1C24"/>
<g opacity="0.3">
<path d="M194.604 94.1207C194.604 94.1207 189.481 101.974 201.636 144.102L232.534 139.539C232.098 135.267 226.929 116.642 226.76 96.2753C226.725 92.1411 223.253 88.8539 219.124 89.0632C218.222 89.1094 217.299 89.1738 216.387 89.2641C212.411 89.6568 206.677 90.375 203.252 91.2045C198.738 92.2986 194.604 94.1207 194.604 94.1207Z" fill="white"/>
</g>
<path opacity="0.2" d="M193.843 107.658L193.946 107.538L201.217 108.183C202.319 112.874 198.274 119.273 196.142 122.239C194.9 116.227 194.202 111.445 193.843 107.658Z" fill="black"/>
<path opacity="0.2" d="M209.304 271.885L209.602 278.855H215.444L215.145 271.885H209.304Z" fill="black"/>
<path opacity="0.2" d="M251.198 263.425L245.815 265.281L248.697 271.852L254.08 269.996L251.198 263.425Z" fill="black"/>
<path d="M212.203 68.8223C213.491 74.4727 214.532 77.7144 212.565 81.3859C209.606 86.9089 202.009 86.3783 199.059 81.2263C196.403 76.5895 194.743 68.1279 199.527 64.3248C204.24 60.5777 210.914 63.1719 212.203 68.8223Z" fill="#FFC3BD"/>
<path d="M200.856 74.3621L198.706 75.6774L198.912 68.3274C198.912 68.3274 196.656 68.4828 195.022 67.1997C195.8 66.4605 207.895 62.222 211.667 62.9605C212.056 62.7953 212.537 62.0659 212.537 62.0659C212.537 62.0659 212.683 62.985 212.042 63.335C212.508 63.2475 213.659 63.4666 213.981 64.147C212.968 63.9328 212.377 64.2394 212.377 64.2394C212.377 64.2394 216.608 64.8743 215.089 70.6997C213.417 77.1166 213.972 80.8105 213.972 80.8105C213.972 80.8105 210.85 83.222 208.129 82.7747C205.231 79.5855 201.051 75.7495 200.856 74.3621Z" fill="#263238"/>
<path d="M196.743 66.6167C193.33 66.6461 192.105 64.9542 191.23 63.5542C193.68 63.2917 198.785 61.7167 202.576 61.4542C206.368 61.1917 210.509 61.8917 209.255 63.5248C208.002 65.1579 196.743 66.6167 196.743 66.6167Z" fill="#263238"/>
<path d="M197.494 65.0985C194.712 64.7107 191.96 62.0668 194.06 59.5391C194.838 61.4004 200.084 61.1827 203.804 60.4043C208.682 59.3837 212.099 61.0322 210.362 64.3705C209.411 66.1975 197.494 65.0985 197.494 65.0985Z" fill="#263238"/>
<path d="M203.883 72.6905C204.326 74.1423 204.165 75.7236 203.696 76.8926C202.992 78.651 201.443 78.2961 200.636 76.7736C199.909 75.403 199.401 72.8375 200.59 71.5698C201.761 70.3203 203.376 71.0301 203.883 72.6905Z" fill="#FFC3BD"/>
<path d="M212.597 142.483C212.597 142.483 217.61 185.149 221.249 201.868C225.232 220.176 244.883 270.104 244.883 270.104L254.709 266.713C254.709 266.713 242.111 229.123 238.768 203.527C236.199 183.867 232.535 139.539 232.535 139.539L212.597 142.483Z" fill="#263238"/>
<path d="M242.373 266.965C242.329 266.979 244.385 271.159 244.385 271.159L255.83 267.444L254.488 264.025L242.373 266.965Z" fill="#ED1C24"/>
<path opacity="0.3" d="M215.359 164.376C216.928 176.229 218.936 190.246 220.706 199.244C223.264 185.472 223.911 168.146 215.359 164.376Z" fill="black"/>
<path d="M201.636 144.102C201.636 144.102 197.478 184.182 198.113 201.99C198.774 220.513 207.426 277.506 207.426 277.506H217.319C217.319 277.506 215.499 221.595 215.938 203.404C216.418 183.573 223.854 140.821 223.854 140.821L201.636 144.102Z" fill="#263238"/>
<path d="M205.522 273.565C205.476 273.565 206.08 277.672 206.08 277.672H218.113L218.438 274.007L205.522 273.565Z" fill="#ED1C24"/>
<path d="M199.721 103.963C198.627 105.699 197.519 107.26 196.368 108.867C195.227 110.463 194.021 112.015 192.795 113.557C190.313 116.623 187.667 119.588 184.697 122.389C183.91 123.07 183.187 123.772 182.344 124.425L181.729 124.92L181.421 125.168C181.306 125.258 181.26 125.304 181.027 125.472C180.249 126.038 179.482 126.388 178.768 126.641C177.328 127.133 176.077 127.247 174.899 127.302C173.723 127.35 172.622 127.276 171.557 127.152C167.31 126.629 163.568 125.445 159.834 123.84L161.041 119.625C164.67 119.988 168.459 120.297 171.839 120.144C172.679 120.095 173.49 120.01 174.214 119.885C174.93 119.759 175.58 119.552 175.921 119.35C176.094 119.257 176.185 119.168 176.161 119.148C176.122 119.176 176.251 119.06 176.318 118.996L176.551 118.775L177.02 118.336C177.65 117.776 178.249 117.095 178.864 116.483C180.076 115.179 181.276 113.843 182.422 112.419C183.59 111.026 184.717 109.569 185.834 108.105C186.955 106.641 188.039 105.14 189.136 103.647C190.215 102.159 191.292 100.591 192.298 99.1416L199.721 103.963Z" fill="#FFC3BD"/>
<path d="M203.782 102.108C206.137 109.804 192.48 118.344 192.48 118.344L183.606 107.034C183.606 107.034 186.068 102.069 190.954 96.7505C196.991 90.181 201.989 96.2486 203.782 102.108Z" fill="#ED1C24"/>
<g opacity="0.3">
<path d="M203.782 102.108C206.137 109.804 192.48 118.344 192.48 118.344L183.606 107.034C183.606 107.034 186.068 102.069 190.954 96.7505C196.991 90.181 201.989 96.2486 203.782 102.108Z" fill="white"/>
</g>
<path d="M163.083 119.93L155.899 118.612L156.655 124.833C156.655 124.833 160.389 126.923 163.103 123.65L163.083 119.93Z" fill="#FFC3BD"/>
<path d="M153.141 120.015L154.695 124.501L156.655 124.833L155.899 118.612L153.141 120.015Z" fill="#FFC3BD"/>
</svg>
