<svg width="56" height="24" viewBox="0 0 56 24" fill="none" xmlns="http://www.w3.org/2000/svg">
<path opacity="0.4" fill-rule="evenodd" clip-rule="evenodd" d="M55.7862 22.1116C55.7862 22.8781 46.0286 23.4995 33.9922 23.4995C21.9558 23.4995 12.1982 22.8781 12.1982 22.1116C12.1982 21.3448 21.9558 20.7236 33.9922 20.7236C46.0286 20.7236 55.7862 21.3448 55.7862 22.1116Z" fill="#5D5D5D"/>
<path fill-rule="evenodd" clip-rule="evenodd" d="M46.1246 19.0895C38.4731 19.2107 30.86 19.3304 23.25 19.4509C22.6285 21.2652 21.6777 22.6798 19.5854 22.5629C17.7366 22.4595 16.7925 21.2006 16.2527 19.4878C15.2048 19.4878 14.1487 19.4878 13.0024 19.4878C13.0024 18.7164 13.0024 18.0153 13.0024 17.2311C12.672 17.2161 12.4285 17.197 12.1851 17.1962C10.864 17.193 9.54249 17.2002 8.22134 17.1895C7.96656 17.1874 7.64569 17.3039 7.49467 16.9145C7.67589 16.6238 7.97722 16.7087 8.23484 16.7069C9.53076 16.6984 10.827 16.7048 12.1226 16.7009C12.3706 16.7002 12.6194 16.6796 12.9061 16.6664C12.9061 15.8595 12.9061 15.1065 12.9061 14.2665C12.5842 14.2544 12.2878 14.2334 11.9925 14.2331C9.37547 14.2309 6.75805 14.2331 4.14063 14.2295C3.84356 14.2288 3.54544 14.1982 3.24802 14.1815C3.22741 14.1311 3.20679 14.081 3.18583 14.0309C3.29634 13.9381 3.39512 13.7914 3.51985 13.7647C3.7398 13.7178 3.97468 13.7413 4.20316 13.7413C6.795 13.7402 9.38684 13.7409 11.979 13.7409C12.2544 13.7409 12.5302 13.7409 12.8482 13.7409C12.8482 12.7772 12.8482 11.8797 12.8482 10.8737C12.4914 10.8737 12.1954 10.8737 11.8991 10.8737C8.29169 10.8737 4.68252 10.8737 1.07441 10.8737C0.922325 10.8737 0.76917 10.8819 0.61744 10.8723C0.348804 10.8552 -0.0100878 10.9153 0.000216982 10.5052C0.00910045 10.1524 0.333882 10.1929 0.58404 10.1847C0.736125 10.1794 0.888925 10.1836 1.04101 10.1836C4.64876 10.1836 8.25758 10.1836 11.8657 10.184C12.1414 10.184 12.4179 10.184 12.7757 10.184C12.8766 9.28605 12.7999 8.43785 12.7949 7.5026C12.4897 7.48981 12.2207 7.4692 11.9513 7.46884C9.58832 7.46636 7.22567 7.46955 4.86267 7.46422C4.60292 7.46351 4.34353 7.42016 4.08449 7.39671C4.07596 7.34305 4.06672 7.28904 4.05783 7.23503C4.1591 7.15899 4.25184 7.03853 4.36342 7.01685C4.56028 6.97883 4.7678 6.99909 4.97105 6.99909C7.25801 6.99873 9.54497 6.99909 11.8319 6.99909C12.1087 6.99909 12.3859 6.99909 12.7356 6.99909C12.7356 4.96228 12.7356 2.97239 12.7356 0.932389C13.0241 0.907515 13.2437 0.874113 13.464 0.871625C23.6267 0.746546 33.7894 0.623599 43.9517 0.501363C44.1972 0.49852 44.4417 0.501007 44.7303 0.501007C44.7612 1.06706 44.7864 1.53718 44.812 2.01546C44.9573 2.05171 45.0568 2.10607 45.1485 2.09506C46.293 1.95825 47.2126 2.53248 48.1181 3.07828C49.9019 4.15318 51.6522 5.28316 53.4279 6.37262C53.7345 6.5606 53.8085 6.78055 53.8088 7.12026C53.8102 8.66989 53.8546 10.2195 53.8518 11.7692C53.8507 12.1746 53.9609 12.445 54.3304 12.6245C54.7178 12.8128 55.082 13.0487 55.4721 13.2324C55.8143 13.3938 55.9746 13.6439 55.9725 14.0099C55.9646 15.4583 55.9661 16.9066 55.9401 18.3546C55.9312 18.8731 55.7227 19.0508 55.1619 19.066C54.5049 19.0834 53.8475 19.0699 53.1429 19.0699C52.9535 20.3421 52.4013 21.3651 51.3733 22.0885C50.7636 22.5181 50.0586 22.6461 49.3376 22.5711C47.9866 22.4297 46.4711 21.3875 46.1246 19.0895ZM23.2141 18.7548C30.231 18.6386 37.2511 18.5227 44.3362 18.4058C44.2356 12.6287 44.1368 6.9536 44.0373 1.22128C33.7926 1.35702 23.6445 1.49134 13.4 1.62743C13.4398 3.42225 13.4793 5.18082 13.5194 6.99944C14.2557 6.99944 14.8875 6.99944 15.5182 6.99944C17.0689 6.99944 17.0689 6.99944 17.3766 7.24214C17.2764 7.5488 17.0124 7.46209 16.8017 7.46422C15.9126 7.47311 15.0236 7.46422 14.1338 7.47097C13.9416 7.4724 13.7493 7.51113 13.5226 7.53636C13.5418 8.44532 13.4906 9.29671 13.6054 10.1847C13.9625 10.1847 14.2401 10.1847 14.5172 10.1847C17.1091 10.1843 19.7009 10.184 22.2927 10.1847C22.4953 10.1851 22.7081 10.1612 22.8965 10.216C23.0088 10.2487 23.1512 10.4121 23.1541 10.5194C23.1562 10.6282 23.0226 10.8037 22.9135 10.8378C22.7273 10.8961 22.5134 10.873 22.3116 10.8733C19.6942 10.8748 17.0778 10.8741 14.46 10.8737C14.1878 10.8737 13.9156 10.8737 13.5518 10.8737C13.598 12.8611 13.642 14.7465 13.6882 16.7272C14.4995 16.7272 15.2222 16.7272 15.9677 16.7272C15.9475 16.8988 15.9464 17.0331 15.9301 17.0349C15.1963 17.1255 14.4621 17.2041 13.7483 17.2819C13.7483 17.7815 13.7483 18.2484 13.7483 18.7739C14.2173 18.7739 14.6206 18.7739 15.0243 18.7739C15.4493 18.7739 15.8739 18.7739 16.2637 18.7739C17.0359 16.5979 18.0688 15.6391 19.7361 15.6779C21.6801 15.7216 22.6616 16.9734 23.2141 18.7548ZM44.7736 2.80751C44.8589 8.00363 44.9435 13.166 45.0291 18.3603C45.5102 18.3603 45.883 18.3603 46.2383 18.3603C47.1707 16.4252 48.0317 15.6924 49.5263 15.6754C51.3602 15.6544 52.3651 16.7904 53.0104 18.3586C53.7406 18.3586 54.441 18.3586 55.1761 18.3586C55.2032 18.21 55.2415 18.0906 55.2437 17.9709C55.2646 16.8295 55.2614 15.6868 55.3066 14.5465C55.3243 14.1012 55.1818 13.8468 54.7711 13.6681C54.3788 13.4968 54.0348 13.2143 53.6432 13.0381C53.2559 12.8636 53.1585 12.6081 53.1607 12.2016C53.1667 10.8566 53.0701 9.50884 53.1294 8.16744C53.1688 7.25528 52.8124 6.75781 52.0406 6.32252C50.2956 5.33894 48.5949 4.27613 46.8957 3.21331C46.2507 2.80929 45.5657 2.8203 44.7736 2.80751ZM22.5667 19.1378C22.5724 17.6244 21.2722 16.2247 19.8452 16.2088C18.2429 16.1906 16.8962 17.537 16.9069 19.1453C16.9172 20.6349 18.2703 22.0463 19.6775 22.0352C21.2754 22.0228 22.5607 20.7333 22.5667 19.1378ZM52.4528 19.0998C52.4439 17.5917 51.115 16.2006 49.6936 16.2102C48.0871 16.2212 46.7671 17.5743 46.793 19.184C46.8164 20.6345 48.1458 22.0217 49.5259 22.036C51.1462 22.0534 52.4621 20.7333 52.4528 19.0998Z" fill="black"/>
<path fill-rule="evenodd" clip-rule="evenodd" d="M23.2139 18.7543C22.6614 16.973 21.6799 15.7207 19.7369 15.6763C18.0697 15.6379 17.0363 16.5963 16.2646 18.7724C15.8744 18.7724 15.4501 18.7724 15.0251 18.7724C14.6215 18.7724 14.2182 18.7724 13.7491 18.7724C13.7491 18.2468 13.7491 17.7799 13.7491 17.2803C14.463 17.2025 15.1971 17.124 15.9309 17.0334C15.9476 17.0316 15.9487 16.8973 15.9686 16.7256C15.223 16.7256 14.5003 16.7256 13.6891 16.7256C13.6429 14.7453 13.5988 12.8596 13.5526 10.8721C13.9161 10.8721 14.1887 10.8721 14.4609 10.8721C17.0783 10.8725 19.6946 10.8729 22.3124 10.8718C22.5142 10.8714 22.7282 10.8945 22.9144 10.8363C23.0234 10.8021 23.1571 10.627 23.1549 10.5179C23.1521 10.4106 23.0096 10.2467 22.8973 10.2144C22.709 10.1593 22.4961 10.1831 22.2936 10.1831C19.7017 10.1824 17.1099 10.1828 14.5181 10.1831C14.2409 10.1831 13.9634 10.1831 13.6063 10.1831C13.4915 9.29515 13.5423 8.44376 13.5235 7.5348C13.7502 7.50958 13.9424 7.47084 14.1347 7.46942C15.0244 7.46267 15.9135 7.47156 16.8025 7.46267C17.0133 7.46054 17.2773 7.54724 17.3775 7.24059C17.0697 6.99789 17.0698 6.99789 15.5191 6.99789C14.8883 6.99789 14.2565 6.99789 13.5203 6.99789C13.4801 5.17962 13.4407 3.42069 13.4009 1.62588C23.6453 1.49014 33.7934 1.35582 44.0382 1.21973C44.1377 6.95205 44.2365 12.6272 44.337 18.4043C37.2509 18.5222 30.2308 18.6384 23.2139 18.7543Z" fill="#FFD957"/>
<path fill-rule="evenodd" clip-rule="evenodd" d="M44.7739 2.80859C45.566 2.82139 46.2511 2.81037 46.896 3.21403C48.5949 4.27685 50.2955 5.34003 52.041 6.32325C52.8127 6.75854 53.1692 7.25601 53.1297 8.16817C53.0704 9.50957 53.1667 10.8574 53.161 12.2023C53.1589 12.6092 53.2562 12.8643 53.6435 13.0388C54.0351 13.215 54.3787 13.4975 54.7714 13.6688C55.1821 13.8475 55.3246 14.1016 55.3069 14.5472C55.2617 15.6878 55.2653 16.8303 55.244 17.9716C55.2418 18.0914 55.2038 18.2107 55.1765 18.3593C54.4416 18.3593 53.7409 18.3593 53.0107 18.3593C52.3657 16.7912 51.3605 15.6552 49.5266 15.6761C48.032 15.6932 47.171 16.4259 46.2386 18.3611C45.8833 18.3611 45.5102 18.3611 45.0294 18.3611C44.9438 13.1671 44.8592 8.00507 44.7739 2.80859ZM51.3576 12.6046C51.3576 10.9398 51.3694 9.39444 51.3434 7.84978C51.3399 7.66181 51.1796 7.42089 51.0197 7.30114C50.3908 6.82925 49.7394 6.38614 49.0835 5.95228C48.5963 5.63034 48.0938 5.33043 47.5882 5.03799C46.9728 4.68229 46.692 4.83651 46.6675 5.5248C46.6657 5.57526 46.6668 5.62643 46.6668 5.67689C46.6668 7.65861 46.6665 9.64033 46.6682 11.6221C46.6686 11.7997 46.6721 11.9781 46.6881 12.1547C46.7166 12.4528 46.8775 12.6063 47.1881 12.6056C48.5306 12.6024 49.8716 12.6046 51.3576 12.6046ZM48.8912 13.2346C48.2065 12.9628 47.6337 13.0782 47.0708 13.1013C47.009 13.1038 46.8885 13.2712 46.9063 13.306C46.9553 13.4027 47.0605 13.5359 47.1472 13.5384C47.6266 13.5515 48.107 13.538 48.5864 13.5125C48.6571 13.5086 48.7224 13.3931 48.8912 13.2346Z" fill="#E42322"/>
<path fill-rule="evenodd" clip-rule="evenodd" d="M22.5666 19.1372C22.5606 20.7327 21.2753 22.0222 19.6774 22.0347C18.2702 22.0457 16.9171 20.6346 16.9068 19.1447C16.8961 17.5364 18.2429 16.1901 19.8451 16.2082C21.2721 16.2242 22.572 17.6239 22.5666 19.1372ZM19.7058 21.0884C20.7427 21.1083 21.7231 20.188 21.7689 19.1515C21.8144 18.1192 20.807 17.0759 19.7591 17.0699C18.7133 17.0638 17.7866 17.9764 17.7436 19.0548C17.7024 20.0672 18.6686 21.0685 19.7058 21.0884Z" fill="#3F3F3F"/>
<path fill-rule="evenodd" clip-rule="evenodd" d="M52.4528 19.0996C52.4621 20.7328 51.1462 22.0528 49.5263 22.0358C48.1458 22.0216 46.8168 20.6343 46.7933 19.1838C46.7674 17.5745 48.0875 16.221 49.694 16.21C51.115 16.2008 52.4439 17.5919 52.4528 19.0996ZM49.7558 21.0892C50.792 21.103 51.7709 20.172 51.8075 19.1398C51.8438 18.1043 50.8318 17.0685 49.7846 17.0699C48.7378 17.0713 47.816 17.9903 47.7808 19.0673C47.7485 20.0828 48.7179 21.0753 49.7558 21.0892Z" fill="#3F3F3F"/>
<path fill-rule="evenodd" clip-rule="evenodd" d="M51.3572 12.6041C49.8711 12.6041 48.5301 12.6023 47.1876 12.6055C46.877 12.6062 46.7161 12.4527 46.6877 12.1546C46.6717 11.978 46.6681 11.7996 46.6678 11.6219C46.666 9.6402 46.6663 7.65848 46.6663 5.67676C46.6663 5.62594 46.6653 5.57513 46.667 5.52467C46.6912 4.83602 46.9719 4.68181 47.5877 5.03786C48.0934 5.32994 48.5958 5.63021 49.083 5.95214C49.7393 6.38601 50.3906 6.82912 51.0192 7.30101C51.1791 7.42076 51.3394 7.66168 51.3429 7.84965C51.3689 9.39395 51.3572 10.9393 51.3572 12.6041ZM47.2004 12.1102C48.4597 12.1134 49.6551 12.1421 50.8966 12.091C50.8966 10.697 50.9059 9.40746 50.8842 8.119C50.8817 7.95235 50.757 7.73523 50.6209 7.63183C50.015 7.17557 49.395 6.73638 48.7596 6.3217C48.2856 6.0122 47.813 5.68599 47.2004 5.4536C47.2004 7.69757 47.2004 9.83848 47.2004 12.1102Z" fill="black"/>
<path fill-rule="evenodd" clip-rule="evenodd" d="M48.891 13.2339C48.7222 13.3924 48.6572 13.5079 48.5861 13.5121C48.1068 13.5377 47.6263 13.5512 47.147 13.5381C47.0603 13.536 46.9551 13.4027 46.9061 13.3057C46.8883 13.2709 47.0088 13.1035 47.0706 13.101C47.6334 13.0776 48.2062 12.9621 48.891 13.2339Z" fill="black"/>
<path fill-rule="evenodd" clip-rule="evenodd" d="M19.706 21.0902C18.6687 21.0707 17.7026 20.0693 17.7434 19.0562C17.7864 17.9778 18.7132 17.0653 19.7589 17.0713C20.8068 17.0774 21.8142 18.1206 21.7687 19.1529C21.7232 20.1894 20.7428 21.1101 19.706 21.0902ZM19.717 20.7601C20.6217 20.7757 21.4144 19.9929 21.4141 19.084C21.4137 18.2173 20.638 17.4132 19.7834 17.3922C18.8827 17.3698 18.1002 18.1562 18.1002 19.085C18.0995 19.9904 18.8276 20.7448 19.717 20.7601Z" fill="black"/>
<path fill-rule="evenodd" clip-rule="evenodd" d="M49.756 21.0905C48.7181 21.077 47.7487 20.0846 47.7811 19.0687C47.8162 17.9916 48.7376 17.0727 49.7848 17.0713C50.832 17.0699 51.8444 18.1057 51.8078 19.1411C51.7712 20.173 50.7922 21.104 49.756 21.0905ZM49.8285 20.7572C50.6977 20.7416 51.4506 19.9673 51.4524 19.0875C51.4542 18.1881 50.6348 17.3733 49.7496 17.3936C48.8414 17.4142 48.1066 18.2201 48.1403 19.1575C48.173 20.0632 48.9228 20.7736 49.8285 20.7572Z" fill="black"/>
<path fill-rule="evenodd" clip-rule="evenodd" d="M47.2007 12.1103C47.2007 9.83863 47.2007 7.69771 47.2007 5.4541C47.8133 5.68649 48.2859 6.01269 48.7599 6.32219C49.3953 6.73687 50.0153 7.17572 50.6212 7.63233C50.7576 7.73538 50.882 7.95249 50.8845 8.1195C50.9062 9.40796 50.8969 10.6975 50.8969 12.0915C49.6554 12.1423 48.46 12.1131 47.2007 12.1103Z" fill="#3F3F3F"/>
<path fill-rule="evenodd" clip-rule="evenodd" d="M19.7169 20.758C18.8275 20.7427 18.0994 19.9884 18.1001 19.0829C18.1001 18.1541 18.8826 17.3677 19.7833 17.3901C20.6379 17.4111 21.4136 18.2149 21.414 19.0819C21.4143 19.9912 20.6216 20.774 19.7169 20.758Z" fill="#B1B1B1"/>
<path fill-rule="evenodd" clip-rule="evenodd" d="M49.828 20.7556C48.9219 20.772 48.1725 20.062 48.1398 19.1559C48.106 18.2185 48.8412 17.4122 49.7491 17.392C50.6343 17.3717 51.4537 18.1862 51.4519 19.0859C51.4505 19.9657 50.6975 20.7396 49.828 20.7556Z" fill="#B1B1B1"/>
<path fill-rule="evenodd" clip-rule="evenodd" d="M27.7543 11.2524L27.7558 8.39959L30.0283 8.40996L32.2974 8.39987L32.3048 12.4058L29.6066 12.4152C28.4818 12.4152 27.3571 12.4157 26.2324 12.4152C25.3029 12.4149 25.5198 12.3373 24.9497 12.9784L24 14.1151L32.9339 14.1238C34.5333 14.1446 35.3627 12.5425 35.4734 10.8018L38.9712 14.1167L42 14.1152L37.8108 10.1837L41.2633 6.51939L38.6989 6.51733C38.2959 6.51708 38.1896 6.73783 37.5394 7.44837L35.4635 9.85679C35.3165 8.10844 34.4553 6.48948 32.9299 6.49957L25.4506 6.54964L25.4693 11.2434L27.7543 11.2524Z" fill="#ED1C24"/>
</svg>
